<?xml version="1.0" encoding="UTF-8" standalone="no"?>
<!-- Created with Inkscape (http://www.inkscape.org/) -->

<svg
   xmlns:dc="http://purl.org/dc/elements/1.1/"
   xmlns:cc="http://creativecommons.org/ns#"
   xmlns:rdf="http://www.w3.org/1999/02/22-rdf-syntax-ns#"
   xmlns:svg="http://www.w3.org/2000/svg"
   xmlns="http://www.w3.org/2000/svg"
   xmlns:sodipodi="http://sodipodi.sourceforge.net/DTD/sodipodi-0.dtd"
   xmlns:inkscape="http://www.inkscape.org/namespaces/inkscape"
   width="32mm"
   height="32mm"
   viewBox="0 0 32 32"
   version="1.1"
   id="svg8"
   sodipodi:docname="icon.svg"
   inkscape:version="0.92.3 (2405546, 2018-03-11)"
   inkscape:export-filename="G:\Projects\Breadcrumb NavXT\assets\icon-256x256.png"
   inkscape:export-xdpi="203.2"
   inkscape:export-ydpi="203.2">
  <defs
     id="defs2" />
  <sodipodi:namedview
     id="base"
     pagecolor="#ffffff"
     bordercolor="#666666"
     borderopacity="1.0"
     inkscape:pageopacity="0.0"
     inkscape:pageshadow="2"
     inkscape:zoom="8"
     inkscape:cx="-47.419687"
     inkscape:cy="99.070744"
     inkscape:document-units="mm"
     inkscape:current-layer="layer1"
     showgrid="true"
     inkscape:window-width="3840"
     inkscape:window-height="2081"
     inkscape:window-x="-9"
     inkscape:window-y="-9"
     inkscape:window-maximized="1">
    <inkscape:grid
       type="xygrid"
       id="grid3713" />
  </sodipodi:namedview>
  <metadata
     id="metadata5">
    <rdf:RDF>
      <cc:Work
         rdf:about="">
        <dc:format>image/svg+xml</dc:format>
        <dc:type
           rdf:resource="http://purl.org/dc/dcmitype/StillImage" />
        <dc:title></dc:title>
      </cc:Work>
    </rdf:RDF>
  </metadata>
  <g
     inkscape:label="Layer 1"
     inkscape:groupmode="layer"
     id="layer1"
     transform="translate(0,-265)">
    <path
       style="fill:#333333;fill-opacity:1;stroke:none;stroke-width:30.26269531;stroke-opacity:1"
       d="M 60.525391 -0.0546875 A 60.525387 60.525387 0 0 0 0 60.470703 A 60.525387 60.525387 0 0 0 60.525391 120.99609 A 60.525387 60.525387 0 0 0 121.05078 60.470703 A 60.525387 60.525387 0 0 0 60.525391 -0.0546875 z M 15.972656 41.095703 L 58.267578 41.095703 C 59.062401 41.095703 59.062722 41.09666 59.861328 41.890625 L 79.027344 60.945312 L 59.861328 80 C 59.062722 80.793928 59.062317 80.792969 58.279297 80.792969 L 15.955078 80.792969 C 15.139532 80.792969 15.138672 80.793928 15.138672 80 L 15.138672 41.890625 C 15.138672 41.09666 15.138001 41.095703 15.972656 41.095703 z M 75.035156 41.095703 L 90.210938 41.095703 C 91.005761 41.095703 91.006073 41.09666 91.804688 41.890625 L 110.97266 60.945312 L 91.804688 80 C 91.006073 80.793928 91.007622 80.792969 90.224609 80.792969 L 75.035156 80.792969 L 95 60.945312 L 75.035156 41.095703 z "
       transform="matrix(0.26458333,0,0,0.26458333,0,265)"
       id="path2098" />
  </g>
</svg>
